<svg width="400" height="320" viewBox="0 0 400 320" fill="none" xmlns="http://www.w3.org/2000/svg">
<g clip-path="url(#clip0_98_68)">
<mask id="mask0_98_68" style="mask-type:luminance" maskUnits="userSpaceOnUse" x="0" y="0" width="400" height="320">
<path d="M0 0H400V320H0V0Z" fill="white"/>
</mask>
<g mask="url(#mask0_98_68)">
<path fill-rule="evenodd" clip-rule="evenodd" d="M159.364 98.3641C159.364 98.96 159.481 99.5501 159.709 100.101C159.937 100.651 160.271 101.152 160.692 101.573C161.113 101.995 161.613 102.329 162.164 102.557C162.714 102.785 163.304 102.903 163.9 102.903C164.496 102.903 165.086 102.785 165.636 102.557C166.187 102.329 166.687 101.995 167.108 101.573C167.529 101.152 167.863 100.651 168.091 100.101C168.319 99.5501 168.436 98.96 168.436 98.3641C168.436 97.1607 167.959 96.0065 167.108 95.1553C166.257 94.3041 165.103 93.8256 163.9 93.8251C163.304 93.8253 162.714 93.943 162.164 94.1713C161.613 94.3996 161.113 94.7341 160.692 95.1556C160.271 95.5772 159.936 96.0776 159.709 96.6283C159.481 97.179 159.364 97.7681 159.364 98.3641ZM166.258 98.3641C166.267 98.6796 166.213 98.9939 166.099 99.2881C165.984 99.5824 165.812 99.8507 165.592 100.077C165.372 100.304 165.109 100.484 164.818 100.607C164.528 100.73 164.215 100.793 163.9 100.793C163.584 100.793 163.271 100.73 162.981 100.607C162.69 100.484 162.427 100.304 162.206 100.078C161.986 99.8515 161.814 99.5833 161.7 99.2891C161.585 98.9948 161.531 98.6806 161.54 98.3651C161.558 97.7513 161.814 97.1687 162.255 96.7409C162.695 96.3131 163.285 96.0738 163.899 96.0738C164.513 96.0738 165.103 96.3131 165.543 96.7409C165.984 97.1687 166.24 97.7503 166.258 98.3641Z" fill="#FFB700"/>
<path d="M216.164 67.8781V72.4181H220.7V74.687H216.164V79.2261H213.896V74.6861H209.36V72.4171H213.896V67.8781H216.164Z" fill="#FFB700"/>
<path d="M210.468 129.899V134.438H215.004V136.707H210.468V141.246H208.2V136.707H203.664V134.438H208.2V129.899H210.468ZM180.598 55.96C180.488 55.8518 180.4 55.7226 180.34 55.5801C180.28 55.4376 180.25 55.2846 180.25 55.13C180.25 54.9755 180.28 54.8225 180.34 54.68C180.4 54.5375 180.488 54.4083 180.598 54.3C180.822 54.0795 181.125 53.9559 181.439 53.9559C181.754 53.9559 182.056 54.0795 182.281 54.3L184.785 56.77C184.895 56.8784 184.983 57.0077 185.042 57.1503C185.102 57.2929 185.133 57.4459 185.133 57.6005C185.133 57.7551 185.102 57.9082 185.042 58.0508C184.983 58.1933 184.895 58.3226 184.785 58.431C184.56 58.6516 184.258 58.7752 183.943 58.7752C183.628 58.7752 183.326 58.6516 183.101 58.431L180.598 55.96ZM186.46 61.744C186.35 61.6358 186.262 61.5066 186.202 61.3641C186.142 61.2216 186.112 61.0686 186.112 60.914C186.112 60.7595 186.142 60.6065 186.202 60.464C186.262 60.3215 186.35 60.1923 186.46 60.084C186.684 59.8635 186.987 59.7399 187.301 59.7399C187.616 59.7399 187.918 59.8635 188.143 60.084L190.647 62.554C190.757 62.6624 190.844 62.7916 190.904 62.9341C190.964 63.0766 190.994 63.2296 190.994 63.384C190.994 63.5385 190.964 63.6914 190.904 63.8339C190.844 63.9764 190.757 64.1056 190.647 64.214C190.422 64.4344 190.12 64.5578 189.805 64.5578C189.49 64.5578 189.188 64.4344 188.963 64.214L186.46 61.744ZM180.598 64.215C180.822 64.4356 181.125 64.5591 181.439 64.5591C181.754 64.5591 182.056 64.4356 182.281 64.215L184.785 61.745C184.895 61.6366 184.983 61.5073 185.042 61.3648C185.102 61.2222 185.133 61.0691 185.133 60.9145C185.133 60.7599 185.102 60.6069 185.042 60.4643C184.983 60.3217 184.895 60.1924 184.785 60.084C184.56 59.8634 184.258 59.7398 183.943 59.7398C183.628 59.7398 183.326 59.8634 183.101 60.084L180.598 62.554C180.488 62.6623 180.4 62.7915 180.34 62.934C180.28 63.0765 180.25 63.2295 180.25 63.384C180.25 63.5386 180.28 63.6916 180.34 63.8341C180.4 63.9766 180.488 64.1068 180.598 64.215ZM188.143 58.431C187.918 58.6516 187.616 58.7751 187.301 58.7751C186.987 58.7751 186.684 58.6516 186.46 58.431C186.35 58.3228 186.262 58.1936 186.202 58.0511C186.142 57.9086 186.112 57.7556 186.112 57.601C186.112 57.4465 186.142 57.2935 186.202 57.151C186.262 57.0085 186.35 56.8793 186.46 56.771L188.963 54.3C189.188 54.0797 189.49 53.9562 189.805 53.9562C190.12 53.9562 190.422 54.0797 190.647 54.3C190.757 54.4084 190.844 54.5376 190.904 54.6801C190.964 54.8226 190.994 54.9756 190.994 55.13C190.994 55.2845 190.964 55.4374 190.904 55.5799C190.844 55.7224 190.757 55.8516 190.647 55.96L188.143 58.431Z" fill="#E85C5C"/>
<path d="M95.4129 265.118C134.412 265.118 166.027 259.52 166.027 252.614C166.027 245.708 134.412 240.11 95.4129 240.11C56.4139 240.11 24.799 245.708 24.799 252.614C24.799 259.52 56.4139 265.118 95.4129 265.118Z" fill="#FFD1D1"/>
<path d="M192.416 157.567C192.258 157.417 192.064 157.311 191.853 157.26C191.641 157.209 191.42 157.214 191.211 157.276C191.002 157.337 190.813 157.452 190.663 157.61C190.513 157.767 190.407 157.962 190.356 158.173L184.986 180.327C184.968 180.403 184.934 180.475 184.888 180.538C184.842 180.602 184.784 180.655 184.717 180.696C184.65 180.737 184.575 180.764 184.498 180.776C184.42 180.788 184.341 180.785 184.265 180.766L181.591 180.118C180.932 179.958 180.233 180.327 180.053 180.982C180.009 181.142 179.997 181.309 180.019 181.474C180.041 181.639 180.096 181.797 180.18 181.94C180.264 182.083 180.376 182.208 180.51 182.307C180.643 182.406 180.795 182.477 180.956 182.516L185.443 183.603C185.61 183.644 185.785 183.659 185.955 183.63C186.465 183.544 186.849 183.168 186.964 182.696L192.766 158.757C192.817 158.545 192.812 158.324 192.751 158.115C192.689 157.906 192.574 157.717 192.416 157.567Z" fill="#097376"/>
<path d="M196.171 119.424L194.414 108.951C194.182 107.604 192.453 107.184 191.63 108.275L190.31 110.025L185.074 116.691L191.808 118.691L196.171 119.424Z" fill="#E76A6A"/>
<path d="M187.79 154.262L196.135 119.83C196.178 119.655 196.164 119.47 196.093 119.304C196.022 119.137 195.899 118.998 195.743 118.908C194.748 118.337 192.576 117.131 190.925 116.494C189.216 115.834 186.615 116.191 185.521 116.388C185.367 116.417 185.225 116.49 185.112 116.598C184.998 116.707 184.92 116.846 184.885 116.999L176.514 151.529L181.234 154.898L187.79 154.262Z" fill="#FB4E4E"/>
<path d="M177.21 187.464C177.659 186.994 177.994 186.402 178.159 185.723L179.049 182.053L175.394 180.265L171.588 180.244L170.699 183.917C170.58 184.407 170.559 184.915 170.637 185.413C170.714 185.911 170.889 186.388 171.152 186.818C171.414 187.249 171.759 187.623 172.166 187.92C172.573 188.217 173.034 188.431 173.524 188.549C174.18 188.708 174.866 188.692 175.513 188.501C176.16 188.311 176.745 187.953 177.21 187.464Z" fill="#9FE6E8"/>
<path d="M180.958 182.514L187.806 154.262L176.53 151.529L169.98 178.557C169.902 178.882 169.955 179.224 170.129 179.509C170.303 179.794 170.583 179.998 170.907 180.077L180.958 182.514Z" fill="#0FC0C5"/>
<path d="M173.48 178.295L177.666 160.759M178.949 154.829L178.318 157.537" stroke="#CFF2F3" stroke-width="2.543" stroke-linecap="round"/>
<path d="M165.612 173.653C165.643 172.885 165.824 172.131 166.147 171.434C166.47 170.737 166.927 170.11 167.492 169.59C168.057 169.07 168.72 168.666 169.441 168.403C170.163 168.139 170.929 168.02 171.697 168.054C172.464 168.087 173.218 168.271 173.914 168.596C174.61 168.921 175.235 169.381 175.753 169.948C176.272 170.515 176.673 171.179 176.934 171.901C177.195 172.624 177.311 173.391 177.275 174.158C177.203 175.701 176.522 177.152 175.382 178.194C174.242 179.236 172.735 179.783 171.192 179.717C169.649 179.65 168.195 178.974 167.149 177.838C166.103 176.701 165.551 175.196 165.612 173.653Z" fill="black" stroke="black" stroke-width="0.709"/>
<path d="M134.203 209.393C145.199 202.137 158.801 194.242 169.279 177.696" stroke="black" stroke-width="3.544"/>
<path d="M36.349 238.792C36.5645 239.527 36.6331 240.298 36.5508 241.06C36.4685 241.822 36.237 242.56 35.8693 243.233C35.5017 243.905 35.0052 244.499 34.4082 244.98C33.8112 245.46 33.1254 245.818 32.39 246.034C31.6545 246.25 30.8838 246.318 30.1218 246.236C29.3598 246.154 28.6215 245.922 27.949 245.554C27.2766 245.187 26.6831 244.69 26.2025 244.093C25.7218 243.496 25.3635 242.81 25.148 242.075C24.7126 240.59 24.8851 238.992 25.6276 237.634C26.3701 236.276 27.6216 235.268 29.107 234.833C30.5923 234.398 32.1898 234.57 33.5479 235.313C34.906 236.055 35.9136 237.307 36.349 238.792Z" fill="black" stroke="black" stroke-width="0.709"/>
<path d="M54.5639 194.837C46.4939 205.25 36.1619 217.107 31.5769 236.148" stroke="black" stroke-width="3.544"/>
<path d="M31.887 133.192L52.673 128.998C52.5402 128.289 52.4059 127.58 52.27 126.871C51.828 124.564 51.228 121.487 50.624 118.407C50.017 115.316 49.4076 112.225 48.796 109.134C47.9801 109.996 47.1956 110.887 46.444 111.805C43.4 115.49 38.686 121.967 31.887 133.192ZM30.897 137.008C33.857 143.518 36.262 152.407 38.224 162.315C40.414 173.373 42.079 185.845 43.327 197.986C45.822 222.265 46.66 245.342 46.666 253.375C46.6627 253.494 46.6837 253.612 46.7279 253.723C46.7722 253.833 46.8385 253.933 46.923 254.017C46.994 254.085 47.0795 254.136 47.1731 254.165C47.2667 254.195 47.3658 254.203 47.463 254.189C55.611 253.246 79.767 249.973 102.07 245.84C113.228 243.772 123.872 241.498 131.805 239.203C135.78 238.053 139.003 236.918 141.251 235.83C142.379 235.285 143.189 234.785 143.712 234.349C144.213 233.932 144.286 233.712 144.289 233.712L144.287 233.722C149.829 202.831 146.696 169.181 140.535 143.105C137.455 130.07 133.635 118.998 129.808 111.157C127.892 107.229 126.006 104.178 124.255 102.105C122.498 100.025 121.13 99.227 120.233 99.11C112.619 100.377 95.118 102.473 79.55 104.25C70.3853 105.294 61.2176 106.311 52.047 107.302L52.433 109.253C52.89 111.563 53.497 114.644 54.102 117.725C54.706 120.806 55.308 123.889 55.752 126.205C55.972 127.361 56.156 128.331 56.28 129.014C56.342 129.354 56.391 129.632 56.424 129.829C56.44 129.924 56.454 130.019 56.464 130.099C56.5055 130.395 56.4781 130.697 56.384 130.981C56.2984 131.174 56.1935 131.359 56.071 131.531C55.89 131.715 55.419 131.994 55.058 132.115L55.061 132.132L30.898 137.008H30.897Z" fill="white" stroke="black" stroke-width="3.544"/>
<path d="M120.291 97.3351C120.204 97.328 120.117 97.3324 120.031 97.3481C105.011 99.8591 49.932 105.748 49.932 105.748C49.932 105.748 44.196 108.899 28.307 135.724C41.554 161.31 44.882 237.438 44.894 253.376C44.894 254.916 46.137 256.127 47.667 255.95C64.029 254.056 144.453 242.836 146.032 234.035C157.222 171.651 133.363 98.4221 120.291 97.3351Z" fill="white"/>
<path fill-rule="evenodd" clip-rule="evenodd" d="M52.673 128.999C52.563 128.411 52.427 127.691 52.27 126.872C51.7271 124.05 51.1784 121.228 50.624 118.408C50.131 115.895 49.636 113.381 49.222 111.287C48.7408 111.827 48.2704 112.376 47.811 112.934C44.964 116.381 40.566 122.396 34.253 132.716L52.673 128.999ZM28.307 135.724C28.722 135.022 29.13 134.338 29.532 133.668C40.043 116.151 45.855 109.466 48.382 107.039C49.452 106.012 49.932 105.748 49.932 105.748L51.702 105.558C61.241 104.529 106.615 99.5911 120.031 97.3481C120.117 97.3324 120.204 97.328 120.291 97.3351C133.363 98.4221 157.222 171.651 146.032 234.035C144.453 242.836 64.029 254.056 47.667 255.95C46.137 256.127 44.895 254.916 44.894 253.376C44.883 237.766 41.69 164.422 29.113 137.369C28.8561 136.815 28.5873 136.267 28.307 135.724ZM32.679 136.649C35.651 143.321 38.032 152.221 39.963 161.971C42.167 173.102 43.839 185.633 45.09 197.806C47.487 221.132 48.36 243.357 48.433 252.29C57.512 251.198 80.478 248.039 101.747 244.098C112.889 242.033 123.465 239.771 131.312 237.501C135.255 236.361 138.366 235.258 140.479 234.236C141.544 233.72 142.211 233.294 142.578 232.987L142.625 232.948C147.999 202.484 144.901 169.293 138.81 143.513C135.751 130.564 131.968 119.624 128.216 111.934C126.333 108.076 124.521 105.168 122.901 103.249C121.485 101.572 120.56 101.058 120.177 100.916C112.335 102.197 95.07 104.263 79.751 106.011C70.7399 107.038 61.7259 108.039 52.709 109.014L52.392 109.048L52.433 109.254C52.89 111.564 53.498 114.644 54.102 117.725C54.6578 120.551 55.2078 123.377 55.752 126.205C55.972 127.362 56.156 128.332 56.281 129.014C56.343 129.354 56.391 129.632 56.424 129.829C56.44 129.925 56.454 130.02 56.464 130.099C56.469 130.132 56.477 130.201 56.482 130.278V130.28C56.4947 130.518 56.4614 130.756 56.384 130.981C56.2984 131.175 56.1936 131.359 56.071 131.532C55.89 131.715 55.419 131.995 55.058 132.116L55.061 132.133L32.679 136.649ZM142.792 232.784C142.792 232.784 142.786 232.793 142.772 232.808C142.778 232.799 142.784 232.791 142.792 232.784Z" fill="black"/>
<path d="M96.64 201.001C98.803 211.953 116.676 208.3 115.412 197.271C115.286 196.173 114.182 195.523 113.099 195.748L98.197 198.84C97.18 199.051 96.439 199.982 96.64 201.001Z" fill="black" stroke="black" stroke-width="1.418" stroke-linecap="round"/>
<path d="M133.942 195.177C122.129 197.179 110.931 189.225 108.929 177.412C106.928 165.599 114.882 154.4 126.695 152.399C138.507 150.397 149.706 158.351 151.708 170.164C153.709 181.977 145.755 193.176 133.942 195.177Z" fill="#FFF5F5" stroke="black" stroke-width="3.544"/>
<path d="M78.7804 204.56C66.9675 206.561 55.7688 198.607 53.7674 186.794C51.766 174.981 59.7198 163.783 71.5327 161.781C83.3456 159.78 94.5443 167.734 96.5457 179.547C98.5471 191.359 90.5933 202.558 78.7804 204.56Z" fill="#FFF5F5" stroke="black" stroke-width="3.544"/>
<path d="M108.7 179.268L97.194 181.217" stroke="black" stroke-width="3.544"/>
<path fill-rule="evenodd" clip-rule="evenodd" d="M125.16 180.774C127.635 180.371 128.517 177.244 127.987 173.983C127.457 170.722 125.631 168.035 123.155 168.437C120.679 168.84 119.798 171.967 120.328 175.228C120.858 178.489 122.684 181.176 125.16 180.774ZM85.94 186.804C88.415 186.402 89.2959 183.275 88.7669 180.014C88.2369 176.753 86.4109 174.066 83.9349 174.468C81.4589 174.87 80.578 177.998 81.108 181.259C81.638 184.519 83.464 187.207 85.94 186.804Z" fill="black"/>
<path d="M239.521 212.749V73.1171C239.521 71.8957 240.007 70.7244 240.87 69.8608C241.734 68.9972 242.906 68.5121 244.127 68.5121H335.411C336.632 68.5121 337.803 68.9971 338.667 69.8611L359.822 91.0161C360.25 91.4436 360.589 91.9512 360.82 92.5099C361.052 93.0686 361.171 93.6674 361.171 94.2721V212.75C361.171 213.971 360.686 215.143 359.822 216.006C358.959 216.87 357.787 217.355 356.566 217.355H244.127C242.906 217.355 241.734 216.87 240.87 216.006C240.007 215.143 239.521 213.972 239.521 212.75V212.749Z" fill="#E76A6A"/>
<path d="M337.494 89.13V68.511C339.36 69.147 361.219 91.249 361.172 92.199H340.564C339.75 92.199 338.969 91.8755 338.393 91.2998C337.817 90.7241 337.494 89.9442 337.494 89.13ZM260.34 140.363C260.34 139.536 260.668 138.743 261.253 138.158C261.838 137.573 262.631 137.245 263.458 137.245H337.235C338.062 137.245 338.855 137.573 339.44 138.158C340.024 138.743 340.353 139.536 340.353 140.363C340.353 141.19 340.024 141.983 339.44 142.568C338.855 143.152 338.062 143.481 337.235 143.481H263.458C262.631 143.481 261.838 143.152 261.253 142.568C260.668 141.983 260.34 141.19 260.34 140.363ZM260.369 107.483C260.369 106.656 260.697 105.863 261.282 105.278C261.867 104.693 262.66 104.365 263.487 104.365H337.264C338.091 104.365 338.884 104.693 339.469 105.278C340.053 105.863 340.382 106.656 340.382 107.483C340.382 108.31 340.053 109.103 339.469 109.688C338.884 110.272 338.091 110.601 337.264 110.601H263.487C262.66 110.601 261.867 110.272 261.282 109.688C260.697 109.103 260.369 108.31 260.369 107.483ZM260.337 156.808C260.337 155.981 260.665 155.188 261.25 154.603C261.835 154.018 262.628 153.69 263.455 153.69H337.232C338.059 153.69 338.852 154.018 339.437 154.603C340.021 155.188 340.35 155.981 340.35 156.808C340.35 157.635 340.021 158.428 339.437 159.013C338.852 159.597 338.059 159.926 337.232 159.926H263.455C262.628 159.926 261.835 159.597 261.25 159.013C260.665 158.428 260.337 157.635 260.337 156.808ZM260.368 123.927C260.368 123.1 260.697 122.307 261.282 121.723C261.866 121.138 262.659 120.81 263.486 120.81H337.263C338.08 120.825 338.859 121.16 339.432 121.743C340.004 122.326 340.325 123.11 340.325 123.927C340.325 124.745 340.004 125.529 339.432 126.112C338.859 126.695 338.08 127.03 337.263 127.045H263.486C262.659 127.045 261.866 126.716 261.281 126.132C260.696 125.547 260.368 124.754 260.368 123.927ZM260.337 173.248C260.337 172.421 260.665 171.628 261.25 171.043C261.835 170.458 262.628 170.13 263.455 170.13H337.182C338.009 170.13 338.802 170.458 339.387 171.043C339.971 171.628 340.3 172.421 340.3 173.248C340.3 174.075 339.971 174.868 339.387 175.453C338.802 176.037 338.009 176.366 337.182 176.366H263.455C262.628 176.366 261.835 176.037 261.25 175.453C260.665 174.868 260.337 174.075 260.337 173.248ZM260.325 189.685C260.325 188.858 260.653 188.065 261.238 187.48C261.823 186.895 262.616 186.567 263.443 186.567H315.259C316.086 186.567 316.879 186.895 317.464 187.48C318.048 188.065 318.377 188.858 318.377 189.685C318.377 190.512 318.048 191.305 317.464 191.89C316.879 192.474 316.086 192.803 315.259 192.803H263.443C262.616 192.803 261.823 192.474 261.238 191.89C260.653 191.305 260.325 190.512 260.325 189.685Z" fill="#FFF8F8"/>
<path d="M280.396 80.52H222.592C220.527 80.52 218.853 82.194 218.853 84.259V114.268C218.853 116.333 220.527 118.007 222.592 118.007H280.396C282.461 118.007 284.135 116.333 284.135 114.268V84.259C284.135 82.194 282.461 80.52 280.396 80.52Z" fill="#FF7761"/>
<path d="M230.049 108.925V91.337H236.092C237.063 91.337 237.971 91.436 238.816 91.633C239.662 91.813 240.399 92.128 241.028 92.578C241.658 93.009 242.152 93.594 242.512 94.331C242.89 95.051 243.079 95.941 243.079 97.001C243.079 98.027 242.89 98.917 242.512 99.672C242.173 100.402 241.664 101.04 241.028 101.534C240.376 102.031 239.634 102.397 238.843 102.613C237.982 102.852 237.093 102.97 236.2 102.964H234.014V108.925H230.049ZM234.014 99.807H235.957C238.115 99.807 239.194 98.872 239.194 97.002C239.194 96.085 238.906 95.437 238.331 95.059C237.755 94.682 236.928 94.493 235.849 94.493H234.014V99.807ZM246.119 108.925V91.337H251.083C252.432 91.337 253.646 91.507 254.725 91.849C255.804 92.191 256.73 92.721 257.503 93.441C258.277 94.142 258.87 95.041 259.284 96.138C259.697 97.235 259.904 98.539 259.904 100.05C259.904 101.561 259.697 102.874 259.284 103.989C258.87 105.104 258.286 106.03 257.53 106.767C256.775 107.487 255.867 108.026 254.806 108.386C253.762 108.746 252.593 108.925 251.299 108.925H246.119ZM250.085 105.715H250.84C251.595 105.715 252.279 105.616 252.89 105.418C253.48 105.234 254.017 104.91 254.455 104.474C254.886 104.025 255.219 103.44 255.453 102.721C255.705 102.001 255.831 101.111 255.831 100.05C255.831 99.007 255.705 98.135 255.453 97.433C255.219 96.714 254.886 96.147 254.455 95.733C254.019 95.2998 253.481 94.9845 252.89 94.817C252.223 94.6296 251.533 94.5387 250.84 94.547H250.085V105.715ZM263.243 108.925V91.337H274.33V94.682H267.208V98.755H273.305V102.1H267.208V108.925H263.243Z" fill="white"/>
<path d="M296.694 258.369C319.063 258.369 337.197 255.111 337.197 251.091C337.197 247.071 319.063 243.813 296.694 243.813C274.325 243.813 256.191 247.071 256.191 251.091C256.191 255.111 274.325 258.369 296.694 258.369Z" fill="#FFD1D1"/>
<path d="M373.757 71.293L388.722 64.843M377.891 92.856L393.034 98.876M361.655 55.194L367.676 40.051" stroke="#FFB700" stroke-width="7.892" stroke-linecap="round"/>
</g>
</g>
<defs>
<clipPath id="clip0_98_68">
<rect width="400" height="320" fill="white"/>
</clipPath>
</defs>
</svg>
