<svg width="300" height="180" viewBox="0 0 300 180" fill="none" xmlns="http://www.w3.org/2000/svg">
<path d="M252 160C252.552 160 253 159.552 253 159C253 158.448 252.552 158 252 158C251.448 158 251 158.448 251 159C251 159.552 251.448 160 252 160ZM252 161C250.895 161 250 160.105 250 159C250 157.895 250.895 157 252 157C253.105 157 254 157.895 254 159C254 160.105 253.105 161 252 161ZM269 72C269.552 72 270 71.5523 270 71C270 70.4477 269.552 70 269 70C268.448 70 268 70.4477 268 71C268 71.5523 268.448 72 269 72ZM269 73C267.895 73 267 72.1046 267 71C267 69.8954 267.895 69 269 69C270.105 69 271 69.8954 271 71C271 72.1046 270.105 73 269 73Z" fill="#E76A6A"/>
<path d="M263 149V147H264V149H266V150H264V152H263V150H261V149H263Z" fill="#E76A6A"/>
<path d="M32 35C32.5523 35 33 34.5523 33 34C33 33.4477 32.5523 33 32 33C31.4477 33 31 33.4477 31 34C31 34.5523 31.4477 35 32 35ZM32 36C30.8954 36 30 35.1046 30 34C30 32.8954 30.8954 32 32 32C33.1046 32 34 32.8954 34 34C34 35.1046 33.1046 36 32 36Z" fill="#E76A6A"/>
<path d="M46.8063 19.1937C47.0646 19.452 47.0646 19.8708 46.8063 20.1292L45.4031 21.5323C45.1448 21.7906 44.726 21.7906 44.4677 21.5323C44.2094 21.274 44.2094 20.8552 44.4677 20.5969L45.8708 19.1937C46.1292 18.9354 46.548 18.9354 46.8063 19.1937ZM43.5323 22.4677C43.7906 22.726 43.7906 23.1448 43.5323 23.4031L42.1292 24.8063C41.8708 25.0646 41.452 25.0646 41.1937 24.8063C40.9354 24.548 40.9354 24.1292 41.1937 23.8708L42.5969 22.4677C42.8552 22.2094 43.274 22.2094 43.5323 22.4677ZM46.8063 24.8063C46.548 25.0646 46.1292 25.0646 45.8708 24.8063L44.4677 23.4031C44.2094 23.1448 44.2094 22.726 44.4677 22.4677C44.726 22.2094 45.1448 22.2094 45.4031 22.4677L46.8063 23.8708C47.0646 24.1292 47.0646 24.548 46.8063 24.8063ZM43.5323 21.5323C43.274 21.7906 42.8552 21.7906 42.5969 21.5323L41.1937 20.1292C40.9354 19.8708 40.9354 19.452 41.1937 19.1937C41.452 18.9354 41.8708 18.9354 42.1292 19.1937L43.5323 20.5969C43.7906 20.8552 43.7906 21.274 43.5323 21.5323ZM32.8063 88.1937C33.0646 88.452 33.0646 88.8708 32.8063 89.1292L31.4031 90.5323C31.1448 90.7906 30.726 90.7906 30.4677 90.5323C30.2094 90.274 30.2094 89.8552 30.4677 89.5969L31.8708 88.1937C32.1292 87.9354 32.548 87.9354 32.8063 88.1937ZM29.5323 91.4677C29.7906 91.726 29.7906 92.1448 29.5323 92.4031L28.1292 93.8063C27.8708 94.0646 27.452 94.0646 27.1937 93.8063C26.9354 93.548 26.9354 93.1292 27.1937 92.8708L28.5969 91.4677C28.8552 91.2094 29.274 91.2094 29.5323 91.4677ZM32.8063 93.8063C32.548 94.0646 32.1292 94.0646 31.8708 93.8063L30.4677 92.4031C30.2094 92.1448 30.2094 91.726 30.4677 91.4677C30.726 91.2094 31.1448 91.2094 31.4031 91.4677L32.8063 92.8708C33.0646 93.1292 33.0646 93.548 32.8063 93.8063ZM29.5323 90.5323C29.274 90.7906 28.8552 90.7906 28.5969 90.5323L27.1937 89.1292C26.9354 88.8708 26.9354 88.452 27.1937 88.1937C27.452 87.9354 27.8708 87.9354 28.1292 88.1937L29.5323 89.5969C29.7906 89.8552 29.7906 90.274 29.5323 90.5323Z" fill="#E76A6A"/>
<path d="M151 36H150V40H151V36Z" fill="#262626"/>
<path d="M151 48H150V52H151V48Z" fill="#262626"/>
<path d="M151 60H150V64H151V60Z" fill="#262626"/>
<path d="M151 72H150V76H151V72Z" fill="#262626"/>
<path d="M151 125H150V129H151V125Z" fill="#262626"/>
<path d="M151 137H150V141H151V137Z" fill="#262626"/>
<path d="M151 42H150V46H151V42Z" fill="#262626"/>
<path d="M151 54H150V58H151V54Z" fill="#262626"/>
<path d="M151 66H150V70H151V66Z" fill="#262626"/>
<path d="M151 119H150V123H151V119Z" fill="#262626"/>
<path d="M151 113H150V117H151V113Z" fill="#262626"/>
<path d="M151 131H150V135H151V131Z" fill="#262626"/>
<path d="M151 143H150V147H151V143Z" fill="#262626"/>
<path d="M56 36H117L141 60V145C141 146.105 140.105 147 139 147H56C54.8954 147 54 146.105 54 145V38C54 36.8954 54.8954 36 56 36Z" fill="#E76A6A"/>
<path opacity="0.3" d="M117 36L141 60H118C117.448 60 117 59.5523 117 59V36Z" fill="white"/>
<path d="M108.507 91.167L99.75 83.2L101.046 82L112 92L101.046 102L99.75 100.8L108.507 92.833H84V91.167H108.507Z" fill="white"/>
<path d="M161 36H222L246 60V145C246 146.105 245.105 147 244 147H161C159.895 147 159 146.105 159 145V38C159 36.8954 159.895 36 161 36Z" fill="#E76A6A"/>
<path d="M191.493 91.167H216V92.833H191.493L200.25 100.8L198.954 102L188 92L198.954 82L200.25 83.2L191.493 91.167Z" fill="white"/>
<path d="M151 112C160.941 112 169 103.941 169 94C169 84.0589 160.941 76 151 76C141.059 76 133 84.0589 133 94C133 103.941 141.059 112 151 112Z" fill="white"/>
<path d="M151 108C143.268 108 137 101.732 137 94C137 86.268 143.268 80 151 80C158.732 80 165 86.268 165 94C165 101.732 158.732 108 151 108Z" fill="#262626"/>
<path d="M151.823 93.1765H158.412V94.8236H151.823V101.412H150.176V94.8236H143.588V93.1765H150.176V86.5883H151.823V93.1765Z" fill="white"/>
<path d="M68.6401 126.56L67.9501 128.96H72.9601L72.2701 126.56C71.6401 124.49 71.0701 122.24 70.5001 120.08H70.3801C69.8401 122.27 69.2701 124.49 68.6401 126.56ZM62.0701 137L68.4601 117.38H72.5401L78.9301 137H75.2701L73.7401 131.69H67.1401L65.6101 137H62.0701Z" fill="white"/>
<path d="M222.535 137V117.38H228.805C232.855 117.38 235.825 118.61 235.825 122.21C235.825 124.07 234.805 125.87 233.095 126.47V126.59C235.255 127.07 236.845 128.6 236.845 131.24C236.845 135.17 233.635 137 229.315 137H222.535ZM226.015 125.48H228.505C231.235 125.48 232.405 124.4 232.405 122.72C232.405 120.8 231.115 120.08 228.565 120.08H226.015V125.48ZM226.015 134.3H228.955C231.835 134.3 233.455 133.25 233.455 131.06C233.455 128.99 231.895 128.09 228.955 128.09H226.015V134.3Z" fill="white"/>
<path opacity="0.3" d="M222 36L246 60H223C222.448 60 222 59.5523 222 59V36Z" fill="white"/>
</svg>
