<svg width="558" height="320" viewBox="0 0 558 320" fill="none" xmlns="http://www.w3.org/2000/svg">
<path fill-rule="evenodd" clip-rule="evenodd" d="M391.333 257.501C391.333 258.975 392.527 260.169 394 260.169C395.473 260.169 396.667 258.975 396.667 257.501C396.667 256.027 395.473 254.832 394 254.832C392.527 254.832 391.333 256.027 391.333 257.501ZM395.334 257.501C395.334 258.238 394.737 258.835 394 258.835C393.264 258.835 392.667 258.238 392.667 257.501C392.667 256.764 393.264 256.166 394 256.166C394.737 256.166 395.334 256.764 395.334 257.501Z" fill="#E76A6A"/>
<path fill-rule="evenodd" clip-rule="evenodd" d="M422 142.746C422 144.22 423.194 145.414 424.667 145.414C426.139 145.414 427.333 144.22 427.333 142.746C427.333 141.272 426.139 140.077 424.667 140.077C423.194 140.077 422 141.272 422 142.746ZM426 142.746C426 143.483 425.403 144.08 424.667 144.08C423.93 144.08 423.333 143.483 423.333 142.746C423.333 142.009 423.93 141.411 424.667 141.411C425.403 141.411 426 142.009 426 142.746Z" fill="#E76A6A"/>
<path fill-rule="evenodd" clip-rule="evenodd" d="M408.667 240.154V237.485H410V240.154H412.667V241.488H410V244.157H408.667V241.488H406V240.154H408.667Z" fill="#E76A6A"/>
<path fill-rule="evenodd" clip-rule="evenodd" d="M108.667 77.3621C108.667 78.836 109.86 80.0308 111.333 80.0308C112.806 80.0308 114 78.836 114 77.3621C114 75.8882 112.806 74.6934 111.333 74.6934C109.86 74.6934 108.667 75.8882 108.667 77.3621ZM112.667 77.3621C112.667 78.099 112.07 78.6964 111.333 78.6964C110.597 78.6964 110 78.099 110 77.3621C110 76.6251 110.597 76.0277 111.333 76.0277C112.07 76.0277 112.667 76.6251 112.667 77.3621Z" fill="#E76A6A"/>
<path fill-rule="evenodd" clip-rule="evenodd" d="M378 94.7088C378 96.1827 379.194 97.3775 380.667 97.3775C382.139 97.3775 383.333 96.1827 383.333 94.7088C383.333 93.2349 382.139 92.04 380.667 92.04C379.194 92.04 378 93.2349 378 94.7088ZM382 94.7088C382 95.4457 381.403 96.0431 380.667 96.0431C379.93 96.0431 379.333 95.4457 379.333 94.7088C379.333 93.9718 379.93 93.3744 380.667 93.3744C381.403 93.3744 382 93.9718 382 94.7088Z" fill="#E76A6A"/>
<path fill-rule="evenodd" clip-rule="evenodd" d="M131.075 58.8534C131.42 58.5087 131.42 57.9499 131.075 57.6052C130.731 57.2605 130.172 57.2605 129.828 57.6052L127.957 59.4775C127.613 59.8222 127.613 60.381 127.957 60.7257C128.302 61.0703 128.86 61.0703 129.204 60.7257L131.075 58.8534ZM126.71 63.222C127.054 62.8774 127.054 62.3185 126.71 61.9739C126.365 61.6292 125.807 61.6292 125.463 61.9739L123.592 63.8461C123.247 64.1908 123.247 64.7497 123.592 65.0943C123.936 65.439 124.495 65.439 124.839 65.0943L126.71 63.222ZM131.075 65.0943C130.731 65.439 130.172 65.439 129.828 65.0943L127.957 63.222C127.613 62.8774 127.613 62.3185 127.957 61.9739C128.302 61.6292 128.86 61.6292 129.204 61.9739L131.075 63.8461C131.42 64.1908 131.42 64.7497 131.075 65.0943ZM125.463 60.7257C125.807 61.0703 126.365 61.0703 126.71 60.7257C127.054 60.381 127.054 59.8222 126.71 59.4775L124.839 57.6052C124.495 57.2605 123.936 57.2605 123.592 57.6052C123.247 57.9499 123.247 58.5087 123.592 58.8534L125.463 60.7257Z" fill="#E76A6A"/>
<path fill-rule="evenodd" clip-rule="evenodd" d="M400.408 76.2001C400.753 75.8554 400.753 75.2965 400.408 74.9519C400.064 74.6072 399.505 74.6072 399.161 74.9519L397.29 76.8242C396.946 77.1688 396.946 77.7277 397.29 78.0723C397.635 78.417 398.193 78.417 398.537 78.0723L400.408 76.2001ZM396.043 80.5687C396.387 80.224 396.387 79.6652 396.043 79.3205C395.699 78.9759 395.14 78.9759 394.796 79.3205L392.925 81.1928C392.58 81.5375 392.58 82.0963 392.925 82.441C393.269 82.7857 393.828 82.7857 394.172 82.441L396.043 80.5687ZM400.408 82.441C400.064 82.7857 399.505 82.7857 399.161 82.441L397.29 80.5687C396.946 80.224 396.946 79.6652 397.29 79.3205C397.635 78.9759 398.193 78.9759 398.537 79.3205L400.408 81.1928C400.753 81.5375 400.753 82.0963 400.408 82.441ZM394.796 78.0723C395.14 78.417 395.699 78.417 396.043 78.0723C396.387 77.7277 396.387 77.1688 396.043 76.8242L394.172 74.9519C393.828 74.6072 393.269 74.6072 392.925 74.9519C392.58 75.2965 392.58 75.8554 392.925 76.2001L394.796 78.0723Z" fill="#E76A6A"/>
<path fill-rule="evenodd" clip-rule="evenodd" d="M103.075 236.323C103.42 235.978 103.42 235.42 103.075 235.075C102.731 234.73 102.172 234.73 101.828 235.075L99.957 236.947C99.613 237.292 99.613 237.851 99.957 238.195C100.302 238.54 100.86 238.54 101.204 238.195L103.075 236.323ZM98.71 240.692C99.054 240.347 99.054 239.788 98.71 239.444C98.365 239.099 97.807 239.099 97.463 239.444L95.592 241.316C95.247 241.661 95.247 242.219 95.592 242.564C95.936 242.909 96.495 242.909 96.839 242.564L98.71 240.692ZM103.075 242.564C102.731 242.909 102.172 242.909 101.828 242.564L99.957 240.692C99.613 240.347 99.613 239.788 99.957 239.444C100.302 239.099 100.86 239.099 101.204 239.444L103.075 241.316C103.42 241.661 103.42 242.219 103.075 242.564ZM97.463 238.195C97.807 238.54 98.365 238.54 98.71 238.195C99.054 237.851 99.054 237.292 98.71 236.947L96.839 235.075C96.495 234.73 95.936 234.73 95.592 235.075C95.247 235.42 95.247 235.978 95.592 236.323L97.463 238.195Z" fill="#E76A6A"/>
<path fill-rule="evenodd" clip-rule="evenodd" d="M89.463 160.803C89.807 161.147 90.365 161.147 90.71 160.803C91.054 160.458 91.054 159.899 90.71 159.554L88.839 157.682C88.495 157.337 87.936 157.337 87.592 157.682C87.247 158.027 87.247 158.586 87.592 158.93L89.463 160.803ZM95.075 158.93C95.42 158.586 95.42 158.027 95.075 157.682C94.731 157.337 94.172 157.337 93.828 157.682L91.957 159.554C91.613 159.899 91.613 160.458 91.957 160.803C92.302 161.147 92.86 161.147 93.204 160.803L95.075 158.93ZM90.71 163.299C91.054 162.954 91.054 162.395 90.71 162.051C90.365 161.706 89.807 161.706 89.463 162.051L87.592 163.923C87.247 164.268 87.247 164.827 87.592 165.171C87.936 165.516 88.495 165.516 88.839 165.171L90.71 163.299ZM95.075 165.171C94.731 165.516 94.172 165.516 93.828 165.171L91.957 163.299C91.613 162.954 91.613 162.395 91.957 162.051C92.302 161.706 92.86 161.706 93.204 162.051L95.075 163.923C95.42 164.268 95.42 164.827 95.075 165.171Z" fill="#E76A6A"/>
<path fill-rule="evenodd" clip-rule="evenodd" d="M138 90.0369C138 88.9323 138.896 88.0369 140 88.0369H222L254 120.061V234.151C254 235.255 253.105 236.151 252 236.151H140C138.896 236.151 138 235.255 138 234.151V90.0369Z" fill="#E76A6A"/>
<path opacity="0.3" fill-rule="evenodd" clip-rule="evenodd" d="M222 88.0369L254 120.062H223C222.448 120.062 222 119.614 222 119.062V88.0369Z" fill="white"/>
<path fill-rule="evenodd" clip-rule="evenodd" d="M262 90.0369C262 88.9323 262.896 88.0369 264 88.0369H346L378 120.061V234.151C378 235.255 377.105 236.151 376 236.151H264C262.896 236.151 262 235.255 262 234.151V90.0369Z" fill="#D74242"/>
<path fill-rule="evenodd" clip-rule="evenodd" d="M292.281 213.425C293.485 213.612 295.003 213.171 296.679 212.277C298.693 211.202 299.768 210.321 299.843 209.728C299.923 209.095 299.958 208.451 299.951 207.794C299.193 207.468 298.547 207.049 298.086 206.545C297.19 205.565 296.976 203.644 297.143 201.287C297.205 200.408 297.325 199.576 297.475 198.996C297.583 198.58 297.7 198.278 297.914 198.009C298.68 197.045 299.941 197.405 300.36 198.362C301.483 200.925 302.21 203.395 302.49 205.778C302.693 205.817 302.901 205.849 303.112 205.874C303.807 205.954 304.456 206.013 305.063 206.048C304.777 205.547 304.611 205.078 304.56 204.636C304.318 202.527 306.119 201.709 308.346 201.896C310.035 202.038 311.832 202.725 312.714 203.696C314.22 205.353 313.218 207.095 310.697 208.06C311.063 208.352 311.459 208.657 311.886 208.974C312.014 209.069 312.991 209.026 313.794 208.772C314.061 208.688 314.341 208.602 314.687 208.496L314.819 208.456C315.101 208.37 315.75 208.173 315.971 208.105C318.36 207.372 319.885 206.782 320.927 206.108C319.991 205.855 319.339 205.577 318.943 205.266C318.032 204.551 317.995 203.307 318.954 202.626C319.369 202.331 319.919 202.178 320.565 202.112C321.836 201.982 323.217 202.207 324.087 202.852C324.59 203.225 324.893 203.674 325.009 204.168C325.159 204.189 325.313 204.21 325.47 204.231C327.128 204.453 328.132 204.46 329.526 204.345C330.348 204.277 330.427 204.272 330.767 204.266C331.954 204.244 333.022 204.483 334.537 205.149L333.463 207.592C332.286 207.074 331.595 206.92 330.814 206.934C330.559 206.939 330.489 206.944 329.745 207.005C328.173 207.134 326.983 207.126 325.117 206.876C324.796 206.834 324.488 206.79 324.193 206.746C324.037 206.94 323.862 207.133 323.667 207.324C322.235 208.729 320.332 209.558 316.753 210.657C316.526 210.726 315.863 210.928 315.586 211.012L315.464 211.049C315.126 211.152 314.853 211.236 314.596 211.318C313.034 211.81 311.331 211.886 310.295 211.116C309.139 210.256 308.163 209.463 307.362 208.728C306.034 208.807 304.537 208.726 302.805 208.524C302.74 208.517 302.675 208.509 302.611 208.5C302.594 209.025 302.554 209.546 302.489 210.062C302.257 211.898 300.769 213.12 297.933 214.632C295.792 215.774 293.781 216.359 291.871 216.062C287.194 215.334 285.071 212.053 285.334 207.754C285.093 207.591 284.84 207.413 284.57 207.22C283.645 206.56 283.235 206.287 282.708 206.008L283.959 203.651C284.56 203.97 285.008 204.26 285.847 204.854C286.597 202.32 288.052 200.336 289.665 200.716C291.674 201.19 293.436 203.259 293.899 205.382C294.486 208.077 292.765 210.013 289.573 209.563C289 209.482 288.499 209.368 288.012 209.201C288.236 211.503 289.575 213.004 292.281 213.425ZM309.524 205.646C309.933 205.507 310.239 205.372 310.447 205.259C309.929 204.936 308.992 204.629 308.123 204.556C307.78 204.527 307.487 204.538 307.281 204.576C307.422 204.903 307.764 205.364 308.317 205.941C308.752 205.87 309.153 205.773 309.524 205.646ZM291.293 205.951C291.491 206.857 291.269 207.107 289.945 206.92C289.317 206.832 288.801 206.679 288.214 206.385C288.388 205.603 288.649 204.854 288.962 204.228C289.124 203.905 289.288 203.64 289.433 203.455C290.252 203.865 291.071 204.928 291.293 205.951Z" fill="white"/>
<path opacity="0.3" fill-rule="evenodd" clip-rule="evenodd" d="M346 88.0369L378 120.062H347C346.448 120.062 346 119.614 346 119.062V88.0369Z" fill="white"/>
<path opacity="0.3" d="M230 145.415H162V148.084H230V145.415Z" fill="white"/>
<path opacity="0.3" d="M354 145.415H286V148.084H354V145.415Z" fill="white"/>
<path opacity="0.3" d="M230 161.427H162V164.096H230V161.427Z" fill="white"/>
<path opacity="0.3" d="M354 161.427H286V164.096H354V161.427Z" fill="white"/>
<path opacity="0.3" d="M230 177.439H162V180.108H230V177.439Z" fill="white"/>
<path opacity="0.3" d="M354 177.439H286V180.108H354V177.439Z" fill="white"/>
<path opacity="0.3" d="M230 193.451H162V196.12H230V193.451Z" fill="white"/>
<path opacity="0.3" d="M354 209.464H286V212.133H354V209.464Z" fill="white"/>
<path opacity="0.3" d="M230 209.464H162V212.133H230V209.464Z" fill="white"/>
<path fill-rule="evenodd" clip-rule="evenodd" d="M106.889 136.729C106.417 137.151 105.794 137.408 105.111 137.408H99.778V135.629H105.111C105.602 135.629 106 135.231 106 134.739V108.052C106 107.561 105.602 107.163 105.111 107.163H99.778V105.384H105.111C105.794 105.384 106.417 105.641 106.889 106.063C107.361 105.641 107.984 105.384 108.667 105.384H114V107.163H108.667C108.176 107.163 107.778 107.561 107.778 108.052V134.739C107.778 135.231 108.176 135.629 108.667 135.629H114V137.408H108.667C107.984 137.408 107.361 137.151 106.889 136.729ZM94.695 123.614L91.608 114.391L88.458 123.614H94.695ZM102.444 132.071V130.762L100.082 130.475L93.309 110.721H91.419L84.678 130.347L82 130.762V132.071H89.245V130.762L86.19 130.347L87.954 125.114H95.199L96.963 130.379L93.876 130.762V132.071H102.444Z" fill="#E76A6A"/>
<path fill-rule="evenodd" clip-rule="evenodd" d="M104.667 189.448C104.667 190.922 105.86 192.117 107.333 192.117C108.806 192.117 110 190.922 110 189.448C110 187.974 108.806 186.78 107.333 186.78C105.86 186.78 104.667 187.974 104.667 189.448ZM108.667 189.448C108.667 190.185 108.07 190.783 107.333 190.783C106.597 190.783 106 190.185 106 189.448C106 188.711 106.597 188.114 107.333 188.114C108.07 188.114 108.667 188.711 108.667 189.448Z" fill="#E76A6A"/>
<path fill-rule="evenodd" clip-rule="evenodd" d="M248.711 74.0259H262V75.3603H248.151C247.149 77.5285 246.038 78.7954 244.777 79.1652C243.824 79.4445 243.044 79.2304 242.663 78.5011C242.374 77.9465 242.38 77.1868 242.609 76.266C242.68 75.9765 242.774 75.6728 242.888 75.3603H238V74.0259H243.461C243.978 72.979 244.653 71.9192 245.392 71.0258C245.613 70.7588 245.834 70.5058 246.057 70.2656C247.017 69.231 247.973 68.4474 249.139 67.7442C249.433 66.4059 249.717 65.1636 249.992 64.0169C248.565 64.5582 246.903 65.0197 245.008 65.4014L244.745 64.0933C247.005 63.6379 248.88 63.0836 250.381 62.4306C251.203 59.1688 251.935 56.8195 252.582 55.373C253.807 52.6352 255.416 52.6533 256.114 55.5129C256.938 58.8897 255.362 61.5048 251.524 63.3612C251.256 64.4462 250.978 65.6292 250.69 66.9101C251.08 66.7214 251.493 66.5336 251.935 66.3428C252.512 66.0938 252.804 65.9737 254.214 65.4015C256.125 64.6259 257.293 64.6129 257.174 65.9662C257.125 66.5336 256.764 67.102 255.811 68.3688C255.772 68.4202 255.772 68.4202 255.734 68.4714C255.321 69.0185 255.325 69.0138 255.191 69.1968C254.861 69.6475 254.535 70.0871 254.214 70.516C254.776 70.1864 255.436 69.7903 256.192 69.3279C258.001 68.2211 259.373 67.6593 260.374 67.6593C261.629 67.6593 262.303 68.5191 262.273 69.9119L260.94 69.8825C260.955 69.181 260.808 68.9936 260.374 68.9936C259.686 68.9936 258.502 69.479 256.887 70.4665C255.162 71.522 253.926 72.2402 253.17 72.6258C252.738 72.8464 252.453 72.9668 252.235 73.0018C251.831 73.0667 251.388 72.9121 251.368 72.3324C251.36 72.0815 251.445 71.9289 251.598 71.7397C252.405 70.7083 253.244 69.5978 254.115 68.4082C254.255 68.2174 254.251 68.2226 254.67 67.6675C254.708 67.6168 254.708 67.6168 254.746 67.5661C255.156 67.0217 255.447 66.6065 255.627 66.3138C255.388 66.3816 255.083 66.4887 254.715 66.638C253.316 67.2057 253.027 67.3246 252.463 67.568C251.65 67.9189 250.947 68.2553 250.316 68.605C250.29 68.723 250.265 68.8418 250.239 68.9613C249.756 70.9326 249.249 72.6205 248.711 74.0259ZM247.275 74.0259C247.759 72.8391 248.232 71.3837 248.686 69.6609C248.105 70.1037 247.571 70.5954 247.034 71.1737C246.829 71.3951 246.624 71.6289 246.419 71.8765C245.884 72.5233 245.385 73.2702 244.966 74.0259H247.275ZM246.669 75.3603H244.318C244.139 75.7911 243.997 76.2063 243.903 76.5874C243.746 77.2208 243.742 77.6851 243.845 77.8828C243.891 77.9714 244.002 78.0019 244.402 77.8846C245.16 77.6627 245.924 76.8197 246.669 75.3603ZM254.819 55.8294C254.44 54.2778 254.532 54.2789 253.799 55.9183C253.262 57.118 252.65 59.0204 251.966 61.6224C254.471 60.1125 255.392 58.1808 254.819 55.8294ZM241.556 68.6885L243.333 70.4676L242.444 71.3572L240.667 69.5781L238.889 71.3572L238 70.4676L239.778 68.6885L238 66.9093L238.889 66.0198L240.667 67.7989L242.444 66.0198L243.333 66.9093L241.556 68.6885Z" fill="#E76A6A"/>
<path fill-rule="evenodd" clip-rule="evenodd" d="M431.333 178.409L425.03 172.102L396.667 200.487V206.795H402.97L431.333 178.409ZM404.545 202.064L428.182 178.409L425.03 175.256L401.394 198.91L404.545 202.064ZM402.97 203.641L399.818 200.487L398.895 201.411V204.565H402.046L402.97 203.641Z" fill="#E76A6A"/>
<path d="M279.333 182.777H270V192.118H279.333V182.777Z" fill="white"/>
<path d="M287.333 186.78H282V188.114H287.333V186.78Z" fill="white"/>
<path d="M275.333 200.123V194.786H274V200.123H275.333Z" fill="white"/>
<path d="M343.333 200.123V194.786H342V200.123H343.333Z" fill="white"/>
<path d="M275.333 208.129V202.792H274V208.129H275.333Z" fill="white"/>
<path d="M343.333 208.129V202.792H342V208.129H343.333Z" fill="white"/>
<path d="M275.333 216.135V210.798H274V216.135H275.333Z" fill="white"/>
<path d="M343.333 216.135V210.798H342V216.135H343.333Z" fill="white"/>
<path d="M287.333 222.807H282V224.141H287.333V222.807Z" fill="white"/>
<path d="M303.333 186.78H298V188.114H303.333V186.78Z" fill="white"/>
<path d="M303.333 222.807H298V224.141H303.333V222.807Z" fill="white"/>
<path d="M319.333 186.78H314V188.114H319.333V186.78Z" fill="white"/>
<path d="M319.333 222.807H314V224.141H319.333V222.807Z" fill="white"/>
<path d="M295.333 186.78H290V188.114H295.333V186.78Z" fill="white"/>
<path d="M295.333 222.807H290V224.141H295.333V222.807Z" fill="white"/>
<path d="M311.333 186.78H306V188.114H311.333V186.78Z" fill="white"/>
<path d="M311.333 222.807H306V224.141H311.333V222.807Z" fill="white"/>
<path d="M327.333 186.78H322V188.114H327.333V186.78Z" fill="white"/>
<path d="M327.333 222.807H322V224.141H327.333V222.807Z" fill="white"/>
<path d="M335.333 186.78H330V188.114H335.333V186.78Z" fill="white"/>
<path d="M335.333 222.807H330V224.141H335.333V222.807Z" fill="white"/>
<path d="M279.333 218.804H270V228.144H279.333V218.804Z" fill="white"/>
<path d="M347.333 182.777H338V192.118H347.333V182.777Z" fill="white"/>
<path d="M347.333 218.804H338V228.144H347.333V218.804Z" fill="white"/>
</svg>
