<svg viewBox="0 0 24 24" fill="none" xmlns="http://www.w3.org/2000/svg"><rect width="24" height="24" rx="4" fill="#FF8000"></rect><path d="M9 11.588V7.392h2.884c.38 0 .745.026 1.097.079.351.052.66.156.928.313.267.144.478.353.632.628.169.274.253.634.253 1.078 0 .445-.084.804-.253 1.079a1.71 1.71 0 0 1-.632.647 2.818 2.818 0 0 1-.928.294 7.447 7.447 0 0 1-1.097.078H9ZM6 5v14h3v-5.02h3.79c.943 0 1.744-.124 2.405-.372.66-.262 1.195-.601 1.603-1.02.422-.418.724-.895.907-1.431.197-.55.295-1.105.295-1.667 0-.575-.098-1.13-.295-1.666a3.661 3.661 0 0 0-.907-1.432c-.408-.418-.942-.751-1.603-1-.66-.261-1.462-.392-2.404-.392H6Z" fill="#fff"></path></svg>