<svg viewBox="0 0 24 24" fill="none" xmlns="http://www.w3.org/2000/svg"><rect width="24" height="24" rx="4" fill="#7961F2"></rect><path fill-rule="evenodd" clip-rule="evenodd" d="M18.238 6.982V4h.89v3.57h.005v.89h-4.461v-.89h2.895a7.098 7.098 0 0 0-5.558-2.678c-3.932 0-7.12 3.196-7.12 7.137a7.133 7.133 0 0 0 3.171 5.94l-.494.742A8.027 8.027 0 0 1 4 12.03C4 7.595 7.586 4 12.009 4a7.986 7.986 0 0 1 6.229 2.982ZM9.398 18.67c.557.22 1.14.37 1.732.444l-.11.886a8.244 8.244 0 0 1-.572-.093l-.022-.005h-.001l-.03-.006-.024-.005-.022-.005h-.001l-.022-.004a.02.02 0 0 0-.008-.002.112.112 0 0 1-.016-.004l-.008-.002a.225.225 0 0 1-.023-.005c-.002 0-.006-.002-.007-.001l-.016-.003c-.003-.002-.005-.002-.007-.002l-.023-.006h-.001l-.022-.006h-.001l-.023-.004a7.81 7.81 0 0 1-1.1-.349l.326-.828Zm3.52.44a7.16 7.16 0 0 0 1.733-.453l.329.829c-.049.02-.1.04-.15.058a.016.016 0 0 1-.006.003h-.002c-.002 0-.003.002-.005.003l-.007.002h-.001l-.004.002-.002.001-.007.002s-.002 0-.003.002l-.007.002-.002.001-.007.002-.004.002h-.002l-.004.003a.253.253 0 0 0-.024.008c-.003 0-.005.001-.006.003l-.006.001a8.482 8.482 0 0 1-.352.118l-.037.011-.013.004-.005.002-.025.007a.01.01 0 0 0-.005.002l-.02.006-.017.005-.034.01a.028.028 0 0 1-.009.003l-.049.013-.003.002-.164.044h-.006l-.05.014h-.001l-.04.01-.008.001-.017.005-.015.003-.025.006h-.002l-.022.006h-.002l-.024.006-.008.001-.008.002-.016.004-.01.002a.094.094 0 0 0-.014.003h-.001c-.003.001-.005 0-.007.002h-.002a.091.091 0 0 1-.016.003l-.008.002-.025.006-.024.005-.008.001h-.001a.108.108 0 0 1-.016.004l-.008.002-.024.005-.025.005-.025.005-.081.016h-.001l-.106.019-.024.004h-.001l-.025.004h-.007v.001a.092.092 0 0 1-.017.003.02.02 0 0 1-.008 0v.001l-.017.003a.026.026 0 0 1-.008 0c-.003.002-.005.002-.007.002h-.001a.024.024 0 0 1-.008.001h-.001c-.001 0-.004.002-.006.001h-.002l-.006.002h-.002l-.008.001-.007.001h-.003l-.004.001h-.003l-.007.002h-.007l-.004.002h-.004l-.003.001h-.005l-.003.001h-.006l-.007.003h-.011l-.003.002h-.01l-.005.002h-.007l-.013.002-.006.001-.053.007-.115-.884Zm4.595-2.554.69.565a7.777 7.777 0 0 1-.453.508l-.015.017h-.001l-.017.017-.003.004-.001.001-.013.012-.004.004-.012.013h-.001l-.004.004v.001a.135.135 0 0 1-.017.016v.002a.017.017 0 0 0-.004.004c-.001 0-.001 0 0 0l-.013.011v.001c-.002 0-.003.003-.004.003l-.002.002-.003.003a.087.087 0 0 1-.008.008l-.001.001a.013.013 0 0 1-.003.003l-.001.002-.004.004a.254.254 0 0 0-.012.012l-.002.002-.004.002v.003c-.005.002-.008.005-.011.009l-.002.001-.003.004-.002.001-.003.004-.002.001-.006.006-.001.002c-.002 0-.003.001-.004.003l-.001.002-.003.002s0 .002-.002.002l-.005.005a.007.007 0 0 1-.003.003l-.002.002-.003.003-.003.002-.002.003-.004.003a.007.007 0 0 1-.004.002v.002l-.004.003-.003.003-.002.002-.003.003-.003.003-.003.003a.012.012 0 0 0-.003.004l-.003.002-.003.002-.003.003-.002.003-.003.003-.003.002c0 .002-.002.003-.003.003l-.002.002-.003.003-.004.002c0 .001 0 .002-.002.002l-.005.005-.002.002-.002.002c0 .002-.002.003-.002.003l-.003.003c-.001 0-.002 0-.003.002a.015.015 0 0 0-.005.005l-.002.002-.003.002-.002.003c-.002 0-.002.002-.003.002l-.003.003a.018.018 0 0 1-.004.004h-.001a.03.03 0 0 0-.004.005l-.003.002-.003.003-.002.002-.003.002a.003.003 0 0 1-.002.002l-.005.005-.003.001-.002.004-.003.001c0 .002-.001.003-.003.004l-.001.001-.005.005-.003.002a.007.007 0 0 1-.003.003l-.002.002-.003.003-.003.002a.04.04 0 0 1-.005.004v.002l-.004.003-.003.002-.003.003s0 .002-.002.002l-.004.004h-.002l-.005.005-.001.002-.004.003s-.002 0-.002.002l-.004.003a.048.048 0 0 1-.006.006l-.001.001-.005.004-.001.002c-.002 0-.002.002-.004.003 0 0-.002 0-.002.002a.04.04 0 0 1-.006.004v.001l-.005.004-.001.002-.004.003-.001.002a.04.04 0 0 1-.006.004.01.01 0 0 0-.006.005l-.006.005h-.001l-.005.005c-.003.002-.003.004-.005.006h-.001l-.005.004-.001.002-.005.003-.001.002-.011.01h-.001l-.005.004v.001l-.012.01h-.001l-.005.005h-.001l-.016.015-.001.001-.006.005-.012.01H17.2c-.001.003-.004.004-.005.006h-.001l-.017.015h-.001l-.017.015a8.342 8.342 0 0 1-.418.33l-.526-.72a7.12 7.12 0 0 0 1.297-1.234Zm1.498-3.23.875.164a8.168 8.168 0 0 1-.255 1.005c0 .003 0 .006-.002.008a.415.415 0 0 0-.015.045l-.007.022v.001l-.002.007h-.001l-.005.015-.002.007s-.001 0 0 0l-.006.015v.001l-.001.007-.009.022-.002.008-.006.015v.001c0 .002 0 .004-.002.005v.001c-.003.005-.003.01-.005.014v.001l-.002.007h-.001a.061.061 0 0 1-.005.015v.002a.014.014 0 0 0-.002.005v.001l-.004.006v.001a.026.026 0 0 0-.002.007v.002l-.003.005v.002l-.002.005v.002l-.003.008-.002.005-.001.002-.002.005-.001.002-.005.014v.002a.02.02 0 0 0-.002.006l-.003.008-.003.006v.001l-.002.006v.002a.018.018 0 0 1-.003.005v.001a.016.016 0 0 1-.003.008v.002l-.003.005v.002a.007.007 0 0 1-.003.004v.002l-.003.007-.002.006-.001.002v.005l-.002.002-.002.007-.003.007-.001.002a.011.011 0 0 1-.002.004l-.001.002c0 .002 0 .004-.002.005v.003l-.003.006-.001.002c0 .002 0 .004-.002.005v.002l-.002.005-.001.002-.003.006v.002a.013.013 0 0 1-.002.004v.003a.01.01 0 0 0-.002.005s0 .002-.002.002l-.002.006v.002l-.002.005c0 .001-.002.002-.001.003l-.003.004v.002l-.002.006v.002c-.002 0-.003.003-.004.005l-.001.002v.005l-.002.002-.002.005v.002L19.45 15l-.001.003-.002.005v.002l-.002.005-.001.002-.004.005v.002a.02.02 0 0 0-.001.005l-.002.003s0 .003-.002.004v.003l-.002.006h-.001l-.002.006-.001.003a.011.011 0 0 0-.002.004l-.001.003a.012.012 0 0 0-.002.004v.003c-.002.001-.003.003-.003.005 0 .001-.002.002-.001.003l-.002.004-.001.002-.003.006v.002l-.003.006v.002l-.002.004-.001.002-.002.004-.001.003-.003.006v.003l-.003.004v.003l-.003.003v.003l-.003.006v.003c-.002 0-.002.003-.003.004l-.002.002v.004l-.002.003a.013.013 0 0 0-.001.004l-.001.003-.002.006c-.001 0 0 .002-.002.003a.013.013 0 0 0-.001.004c-.001 0-.002.001-.001.002l-.003.004v.003l-.003.006-.002.002-.001.004-.001.003-.002.004-.001.002a.02.02 0 0 0-.002.006l-.001.003a.013.013 0 0 1-.002.004l-.001.003-.002.004-.001.002-.002.005-.002.002a.015.015 0 0 0-.002.006v.003l-.003.003v.003c-.002.001-.003.003-.003.005l-.002.002-.002.006v.002a.015.015 0 0 1-.002.005v.002c-.002.002-.003.003-.003.005v.001l-.004.007v.002c-.001 0-.003.002-.003.004l-.002.002-.001.004-.001.004-.003.006a.015.015 0 0 1-.003.006l-.001.002v.005l-.002.002-.003.005a.023.023 0 0 0-.003.007c0 .001 0 .002-.002.002v.005c-.002 0-.002.002-.002.002a.017.017 0 0 0-.002.006h-.001l-.003.007-.001.002-.002.005-.002.003-.001.004h-.001l-.003.007v.002a.015.015 0 0 0-.003.005v.003c-.002 0-.002.003-.004.004v.002c0 .003-.002.005-.003.007v.001l-.003.006v.002c-.002 0-.003.002-.003.003v.002l-.807-.376c.252-.546.436-1.12.545-1.71Zm.597-3.83c.02.06.04.12.058.182l.002.006.006.02.005.015.004.015c0 .002 0 .003.002.004l.007.029.003.004.01.037.002.006.014.052a.01.01 0 0 1 .002.005l.044.163v.004l.014.053v.004l.01.04v.003l.008.027v.004l.008.028v.005l.005.018v.002l.006.024v.002l.004.018v.004l.006.02v.001l.006.03.002.007v.002l.003.012v.004l.004.015v.004l.003.011v.002l.003.013v.005l.003.008v.005a.317.317 0 0 1 .007.032l.002.007v.005l.002.008v.005l.003.008v.003l.005.021v.006l.003.006a.01.01 0 0 1 0 .006l.01.044V10.573l.003.007v.005l.002.007v.006l.002.006.001.007.001.006.002.006v.006l.012.07.001.005v.007l.003.007.001.012.003.012c.04.245.068.49.085.734l-.887.062a7.313 7.313 0 0 0-.35-1.762l.845-.28Z" fill="#fff"></path></svg>