<svg viewBox="0 0 24 24" fill="none" xmlns="http://www.w3.org/2000/svg"><rect width="24" height="24" rx="4" fill="#7961F2"></rect><path fill-rule="evenodd" clip-rule="evenodd" d="M6.858 18.832c1.466.524 3.089-.22 3.623-1.66L12 13.082l1.518 4.09c.535 1.44 2.157 2.184 3.624 1.66 1.466-.523 2.22-2.114 1.686-3.555-.535-1.44-2.157-2.184-3.623-1.66a2.795 2.795 0 0 0-1.523 1.295l-1.181-3.18L15 5l-.574.289c-.423.213-.75.575-.912 1.014L12 10.382l-1.514-4.079a1.865 1.865 0 0 0-.912-1.014L9 5l2.499 6.731-1.18 3.18a2.795 2.795 0 0 0-1.524-1.295c-1.466-.523-3.088.22-3.623 1.661-.535 1.44.22 3.032 1.686 3.556Zm.323-.869c.978.349 2.059-.147 2.415-1.107a1.839 1.839 0 0 0-1.124-2.37c-.977-.35-2.059.146-2.415 1.107a1.839 1.839 0 0 0 1.124 2.37Zm9.638 0a1.839 1.839 0 0 0 1.124-2.37c-.356-.96-1.438-1.456-2.415-1.108a1.839 1.839 0 0 0-1.125 2.37c.357.961 1.438 1.457 2.416 1.108Z" fill="#fff"></path></svg>