<svg viewBox="0 0 24 24" fill="white" xmlns="http://www.w3.org/2000/svg">
<rect width="24" height="24" rx="4" fill="none
"></rect><path fill-rule="evenodd" clip-rule="evenodd" d="M16.432 4.505c.611 2.344-.558 4.158-3.404 5.446-.198.753-.404 1.574-.618 2.463.289-.13.595-.261.923-.394.428-.172.645-.256 1.69-.653 1.417-.538 2.284-.547 2.196.392-.037.394-.304.788-1.011 1.667l-.058.072c-.305.38-.303.376-.402.503-.245.313-.486.618-.725.915.417-.228.907-.503 1.467-.824 1.342-.768 2.359-1.158 3.101-1.158.93 0 1.43.597 1.408 1.563l-.988-.02c.011-.487-.098-.617-.42-.617-.51 0-1.388.337-2.585 1.022-1.28.732-2.196 1.23-2.757 1.498-.32.153-.532.237-.693.261-.3.045-.628-.062-.643-.464-.006-.174.057-.28.17-.412a91.17 91.17 0 0 0 1.867-2.311c.094-.12.1-.129.334-.419l.134-.166c.304-.377.52-.666.653-.869a7.137 7.137 0 0 0-.676.225 74.724 74.724 0 0 0-1.67.646c-.603.243-1.125.476-1.592.72-.02.081-.038.164-.057.246-.358 1.369-.734 2.188-1.134 3.164L21 17v1H10.528c-.743 1.504-1.567 2.662-2.502 2.918-.707.194-1.285.045-1.568-.46-.215-.386-.253-.969-.083-1.608.053-.2.125-.35.25-.85H3v-1h4.05a8.448 8.448 0 0 1 1.27-1.825c.163-.185.327-.36.492-.527.712-.718 1.584-1.167 2.448-1.655.218-.929.429-1.79.633-2.587-1.058.376-2.291.696-3.696.961l-.195-.908c1.675-.316 3.066-.7 4.18-1.153.608-2.264 1.151-3.894 1.631-4.898.908-1.9 2.102-1.887 2.62.097ZM9.43 18H7.685c-.133.3-.28.809-.35 1.073-.117.44-.077.818 0 .955.034.062.116.083.413.001.561-.154 1.128-1.016 1.68-2.03Zm1.495-3.677c-.43.307-.99.553-1.387.955-.152.153-.304.316-.456.487-.396.449-.605.71-.915 1.234l1.711.002c.36-.824.71-1.482 1.047-2.678Zm-4.628-2.527.659.618-1.318 1.234 1.318 1.235-.66.617-1.318-1.235L3.66 15.5 3 14.883l1.318-1.235L3 12.414l.66-.618 1.317 1.235 1.319-1.235Zm8.42-7.01c-.398.833-.852 2.153-1.36 3.959 1.858-1.048 2.541-2.388 2.116-4.02-.281-1.077-.213-1.076-.756.062Z" fill="#fff"></path></svg>