<svg width="96" height="60" viewBox="0 0 96 60" fill="none" xmlns="http://www.w3.org/2000/svg">
<g clip-path="url(#clip0_91_2)">
<path d="M56.9358 0.887934L87.1245 1.94215L95.123 10.5194L93.65 52.7008C93.6037 54.0255 92.5349 55.0734 91.2287 55.1124L91.0642 55.112L68.9993 54.3405L69 58C69 59.1046 68.1046 60 67 60H31C29.8955 60 29 59.1046 29 58L28.9993 54.2685L4.93579 55.1095C3.61112 55.1557 2.49122 54.1627 2.36112 52.8623L2.35007 52.6982L0.674892 4.72749C0.628633 3.40281 1.62169 2.28292 2.92203 2.15281L3.08612 2.14176L33.2748 1.08755L40.5172 7.84121L40.3683 7.99951H54.1853L54.3501 3.29916C54.3964 1.97449 55.4651 0.926592 56.7714 0.887512L56.9358 0.887934ZM59.9993 8.99951L31 8.99998C30.4872 8.99998 30.0645 9.38602 30.0068 9.88336L30 9.99998L29.9993 38.9995L50 39C50.5523 39 51 39.4477 51 40V51C51 51.5523 50.5523 52 50 52L29.9993 51.9995L30 58C30 58.5128 30.3861 58.9355 30.8834 58.9933L31 59H67C67.5129 59 67.9355 58.6139 67.9933 58.1166L68 58L67.9993 16.9995L60 17L59.9993 8.99951ZM56.9009 1.88733C56.1217 1.86011 55.4606 2.43228 55.3614 3.18993L55.3495 3.33406L55.1863 7.99951L61 7.99998L69 16L68.9992 25.6289C70.5661 24.831 72.3186 24.4353 74.1223 24.4983C79.9177 24.7007 84.4518 29.5629 84.2494 35.3583C84.047 41.1538 79.1848 45.6879 73.3894 45.4855C71.8382 45.4313 70.3474 45.0415 68.999 44.3553L68.9993 53.3405L91.0991 54.1126C91.8784 54.1398 92.5395 53.5677 92.6387 52.81L92.6506 52.6659L94.0793 11.6905L86.586 11.4291L85.5866 11.3942L85.8833 2.89751L56.9009 1.88733ZM32.1023 2.12751L3.12102 3.14115C2.3418 3.16836 1.7222 3.78525 1.6761 4.54798L1.67428 4.69259L3.34946 52.6633C3.37667 53.4426 3.99356 54.0622 4.75628 54.1083L4.90089 54.1101L28.9993 53.2685V51.9995L28 52C27.4478 52 27 51.5523 27 51L26.9993 44.8345L19.5951 45.0933L19.5952 45.0943L18.5958 45.1292L18.5957 45.1282L13.5988 45.3027L12.5994 45.3386L11.8665 24.3514L28.9993 23.7525L29 9.99998C29 8.89541 29.8955 7.99998 31 7.99998L32.3073 7.99951L32.1023 2.12751ZM59 50V51H53V50H59ZM32.3146 42H30V49H31.3034V46.4312H32.3596C33.9439 46.4312 35.1573 45.714 35.1573 44.1621C35.1573 42.5351 33.9439 42 32.3146 42ZM38.5057 42H36.5394V49H38.5731C40.7528 49 42.0787 47.7905 42.0787 45.4679C42.0787 43.1559 40.7528 42 38.5057 42ZM48 42H43.5618V49H44.8652V46.078H47.5394V45.029H44.8652V43.0489H48V42ZM38.4158 43.0061C39.8989 43.0061 40.7416 43.7553 40.7416 45.4679C40.7416 47.1222 39.965 47.9282 38.5907 47.99L38.4158 47.9939H37.8427V43.0061H38.4158ZM59 45V46H53V45H59ZM32.2135 42.9954C33.3034 42.9954 33.8764 43.2844 33.8764 44.1621C33.8764 44.968 33.4087 45.3851 32.445 45.4314L32.2585 45.4358H31.3034V42.9954H32.2135ZM69.0266 26.7511L68.9993 26.7665L68.9997 43.2179C70.3345 43.9914 71.8439 44.4309 73.4243 44.4861C78.3288 44.6574 82.4945 41.0795 83.1625 36.3253L73.7208 35.9951L74.0874 25.4977C72.289 25.4349 70.5488 25.8753 69.0266 26.7511ZM18.4213 40.1323L13.4243 40.3068L13.5639 44.3033L18.5608 44.1288L18.4213 40.1323ZM27.0142 39.8315L19.4207 40.0974L19.5602 44.0939L26.9993 43.8345L27 40C27 39.9426 27.0049 39.8863 27.0142 39.8315ZM59 40V41H53V40H59ZM18.2468 35.1353L13.2498 35.3098L13.3894 39.3074L18.3864 39.1329L18.2468 35.1353ZM28.9993 34.7585L19.2462 35.1004L19.3858 39.098L28.9993 38.7615V34.7585ZM59 35V36H39V35H59ZM18.0723 30.1384L13.0753 30.3129L13.2149 34.3104L18.2119 34.1359L18.0723 30.1384ZM28.9993 29.7555L19.0717 30.1035L19.2113 34.101L28.9993 33.7585V29.7555ZM59 30V31H39V30H59ZM17.8978 25.1414L12.9008 25.3159L13.0404 29.3135L18.0374 29.139L17.8978 25.1414ZM28.9993 24.7535L18.8972 25.1065L19.0368 29.1041L28.9993 28.7555V24.7535ZM60.9993 9.41451V15.9995H67.5843L60.9993 9.41451ZM86.8743 3.14051L86.6203 10.4295L93.9093 10.6835L86.8743 3.14051ZM33.1093 2.29951L33.3083 7.99951H39.2203L33.1093 2.29951Z" fill="white"/>
</g>
<defs>
<clipPath id="clip0_91_2">
<rect width="96" height="60" fill="white"/>
</clipPath>
</defs>
</svg>
